<svg width="32" height="32" xmlns="http://www.w3.org/2000/svg">

 <g>
  <title>background</title>
  <rect fill="none" id="canvas_background" height="34" width="34" y="-1" x="-1"/>
 </g>
 <g>
  <title>Layer 1</title>
  <path fill="#ff0000" stroke="null" id="svg_3" d="m21.980826,10.115625c-0.225772,-0.226061 -0.591747,-0.226061 -0.817519,0l-5.190437,5.191015l-5.190437,-5.191015c-0.225772,-0.226061 -0.591747,-0.226061 -0.817519,0c-0.225772,0.225772 -0.225772,0.591747 0,0.817519l5.190437,5.191015l-5.190437,5.191015c-0.225772,0.225483 -0.225772,0.591747 0,0.817519c0.11303,0.112741 0.26075,0.169112 0.40876,0.169112s0.295729,-0.056371 0.40876,-0.169112l5.190437,-5.190726l5.190437,5.190726c0.11303,0.112741 0.26075,0.169112 0.40876,0.169112s0.295729,-0.056371 0.40876,-0.169112c0.225772,-0.225772 0.225772,-0.592036 0,-0.817519l-5.190437,-5.191015l5.190437,-5.191015c0.226061,-0.225483 0.226061,-0.591747 0,-0.817519zm-6.007956,-8.483062c-7.990758,0 -14.491307,6.500549 -14.491307,14.490729c0.000578,7.991047 6.501705,14.491885 14.492463,14.491885c7.989891,0 14.490151,-6.501127 14.490151,-14.491885c0,-7.99018 -6.500549,-14.490729 -14.491307,-14.490729zm0.001156,27.826582l-0.000578,0c-7.352758,0 -13.334986,-5.982517 -13.335564,-13.335564c0,-7.352758 5.981939,-13.334408 13.334986,-13.334408s13.334986,5.981939 13.334986,13.334408c0,7.352758 -5.981361,13.335564 -13.333829,13.335564z"/>
 </g>
</svg>