<svg width="32" height="32" xmlns="http://www.w3.org/2000/svg">
 <title/>
 <desc/>

 <g>
  <title>background</title>
  <rect fill="none" id="canvas_background" height="402" width="582" y="-1" x="-1"/>
 </g>
 <g>
  <title>Layer 1</title>
  <path fill="#56aaff" id="document-edit" d="m26.44323,12.15033l-11.28622,11.29958l0,0l-2.60556,-2.60557l11.29209,-11.29369l2.59969,2.59968l0,0zm0.70669,-0.70752l1.72918,-1.73123c0.38997,-0.39043 0.38709,-1.02508 -0.0048,-1.4159l-1.17981,-1.17657c-0.39263,-0.39154 -1.02523,-0.39459 -1.41658,-0.00318l-1.72732,1.72756l2.59933,2.59932l0,0zm-15.24621,10.168l-0.63955,3.1127l3.1349,-0.61734l-2.49535,-2.49536l0,0l0,0zm10.09629,-11.61081l0,0l-6,-7l-10.99724,0c-1.10609,0 -2.00276,0.89834 -2.00276,2.00733l0,22.98534c0,1.10862 0.89093,2.00733 1.99742,2.00733l15.00516,0c1.10314,0 1.99742,-0.89821 1.99742,-1.9908l0,-10.0092l7.58011,-7.58011c0.78418,-0.78418 0.78608,-2.0537 0.00964,-2.83014l-1.1795,-1.1795c-0.77886,-0.77886 -2.03747,-0.78303 -2.83014,0.00964l-3.58011,3.58011l0,0l0,0zm-1,9l0,9.0066c0,0.54845 -0.4477,0.9934 -0.99996,0.9934l-15.00008,0c-0.54525,0 -0.99996,-0.44568 -0.99996,-0.99546l0,-23.00908c0,-0.5402 0.44574,-0.99546 0.99558,-0.99546l10.00442,0l0,4.99408c0,1.11937 0.8945,2.00592 1.99791,2.00592l4.00209,0l-10,10l-1,5l5,-1l6,-6l0,0l0,0zm-5,-14.5l0,4.49122c0,0.55713 0.45065,1.00878 0.99674,1.00878l3.70321,0l-4.69995,-5.5l0,0z"/>
 </g>
</svg>